<svg xmlns="http://www.w3.org/2000/svg" width="237.51" height="29.7" viewBox="0 0 237.51 29.7">
  <path id="name-logo" d="M2.1,0H6.18V-8.91h9.66V0h4.08V-21.6H15.84v8.88H6.18V-21.6H2.1ZM24.42-18.45H28.5v-3.6H24.42ZM24.42,0H28.5V-16.2H24.42ZM50.97-16.59a5.894,5.894,0,0,0-4.95,2.52,5.014,5.014,0,0,0-4.71-2.52,6.077,6.077,0,0,0-4.74,2.16V-16.2h-3.6V0h4.11V-9.81a2.838,2.838,0,0,1,2.82-3.15c1.77,0,2.85,1.26,2.85,3.39V0h4.08V-9.81a2.838,2.838,0,0,1,2.82-3.15c1.77,0,2.85,1.26,2.85,3.39V0h4.08V-10.65C56.58-14.19,54.66-16.59,50.97-16.59Zm22.44,2.88c-1.14-2.16-3.48-2.94-6.33-2.94-3.9,0-6.12,1.86-6.93,4.53l3.69,1.17a3.277,3.277,0,0,1,3.24-1.98c1.92,0,2.79.69,2.97,2.19a40.264,40.264,0,0,0-6.93,1.38,4.758,4.758,0,0,0-3.54,4.89c0,2.7,1.92,4.92,5.4,4.92A6.465,6.465,0,0,0,70.5-1.98V0h3.57V-9.9A7.592,7.592,0,0,0,73.41-13.71ZM69.6-4.92a4.123,4.123,0,0,1-3.75,2.16c-1.41,0-2.28-.66-2.28-1.77,0-.81.48-1.38,1.68-1.86a28.366,28.366,0,0,1,4.77-1.02A6.9,6.9,0,0,1,69.6-4.92ZM86.82-16.68a6.727,6.727,0,0,0-5.25,2.16V-16.2H77.94V0h4.14V-8.22c0-4.02,2.04-4.62,3.45-4.62,3.48,0,3.48,3.72,3.48,5.19V0h4.14V-9.09C93.15-10.44,93.15-16.68,86.82-16.68ZM103.38.45c4.23,0,6.78-2.01,6.78-5.34,0-2.52-1.41-3.84-5.1-4.8-3.78-.96-4.32-1.23-4.32-2.07,0-.93.99-1.47,2.49-1.38,1.53.12,2.46.84,2.61,2.04l4.17-.75c-.42-2.94-3.06-4.8-6.87-4.8-3.93,0-6.45,1.98-6.45,5.1,0,2.49,1.44,3.75,5.4,4.77,3.51.93,3.9,1.14,3.9,2.1,0,1.02-.84,1.62-2.31,1.62a3.116,3.116,0,0,1-3.36-2.43l-4.17.63C96.69-1.47,99.3.45,103.38.45Zm18.93-17.13a6.727,6.727,0,0,0-5.25,2.16V-21.6h-3.63V0h4.14V-8.22c0-4.02,2.04-4.62,3.45-4.62,3.48,0,3.48,3.72,3.48,5.19V0h4.14V-9.09C128.64-10.44,128.64-16.68,122.31-16.68Zm21,.48v8.22c0,4.02-2.04,4.62-3.45,4.62-3.48,0-3.48-3.72-3.48-5.19V-16.2h-4.14v9.09c0,1.35,0,7.59,6.33,7.59a6.727,6.727,0,0,0,5.25-2.16V0h3.6V-16.2ZM165.78.45c4.41,0,8.67-2.22,8.67-6.87,0-4.35-3.75-5.43-5.97-6.03l-3.75-1.02c-1.38-.36-2.88-.9-2.88-2.31,0-1.53,1.8-2.49,3.72-2.43a4.33,4.33,0,0,1,4.29,3.27l4.41-.75c-1.05-4.05-4.17-6.27-8.64-6.33-4.44-.03-8.07,2.1-8.07,6.45,0,4.11,3.21,5.16,4.89,5.64l5.61,1.65c1.68.51,2.1,1.29,2.1,2.16,0,1.8-2.1,2.76-4.11,2.76a4.991,4.991,0,0,1-5.07-3.87l-4.26.63C157.38-2.22,160.98.45,165.78.45Zm12.27-18.9h4.08v-3.6h-4.08Zm0,18.45h4.08V-16.2h-4.08Zm17.43-16.68a6.727,6.727,0,0,0-5.25,2.16V-16.2H186.6V0h4.14V-8.22c0-4.02,2.04-4.62,3.45-4.62,3.48,0,3.48,3.72,3.48,5.19V0h4.14V-9.09C201.81-10.44,201.81-16.68,195.48-16.68Zm21.18.48v.9a6.5,6.5,0,0,0-4.17-1.35c-4.65,0-7.68,3.6-7.68,8.55,0,4.86,3,8.55,7.47,8.55a7.142,7.142,0,0,0,3.87-1.02V1.05c.06,1.8-1.65,2.73-3.48,2.73a2.966,2.966,0,0,1-2.7-1.47l-3.78,1.83a7.453,7.453,0,0,0,6.45,3.51c3.57,0,6.57-1.38,7.35-4.35a8.453,8.453,0,0,0,.24-2.19V-16.2ZM212.94-3.18c-2.64,0-3.81-2.19-3.81-4.92,0-2.7,1.23-4.92,3.96-4.92,2.55,0,3.57,1.98,3.57,4.92S215.67-3.18,212.94-3.18Zm20.34-13.5a6.727,6.727,0,0,0-5.25,2.16V-21.6H224.4V0h4.14V-8.22c0-4.02,2.04-4.62,3.45-4.62,3.48,0,3.48,3.72,3.48,5.19V0h4.14V-9.09C239.61-10.44,239.61-16.68,233.28-16.68Z" transform="translate(-2.1 22.05)" fill="#105652"/>
</svg>
